<svg width="15" height="11" viewBox="0 0 15 11" fill="none" xmlns="http://www.w3.org/2000/svg">
<path d="M13.9286 0H1.07143C0.787268 0 0.514746 0.112882 0.313814 0.313814C0.112882 0.514746 0 0.787268 0 1.07143V9.64286C0 9.92702 0.112882 10.1995 0.313814 10.4005C0.514746 10.6014 0.787268 10.7143 1.07143 10.7143H13.9286C14.2127 10.7143 14.4853 10.6014 14.6862 10.4005C14.8871 10.1995 15 9.92702 15 9.64286V1.07143C15 0.787268 14.8871 0.514746 14.6862 0.313814C14.4853 0.112882 14.2127 0 13.9286 0ZM12.6281 6.34219C12.6695 6.39935 12.6992 6.4641 12.7156 6.53274C12.7319 6.60138 12.7346 6.67257 12.7234 6.74225C12.7123 6.81192 12.6875 6.87872 12.6505 6.93882C12.6135 6.99892 12.5651 7.05115 12.5079 7.09252C12.4508 7.1339 12.386 7.16361 12.3174 7.17996C12.2487 7.19631 12.1775 7.19898 12.1079 7.18782C12.0382 7.17666 11.9714 7.15188 11.9113 7.11491C11.8512 7.07793 11.799 7.02948 11.7576 6.97232L11.25 6.26853L10.7391 6.97232C10.6555 7.08776 10.5295 7.16528 10.3888 7.18782C10.2481 7.21036 10.1042 7.17608 9.98873 7.09252C9.87329 7.00896 9.79577 6.88296 9.77323 6.74225C9.75069 6.60153 9.78497 6.45763 9.86853 6.34219L10.3801 5.63906L9.55245 5.37121C9.48558 5.34922 9.42369 5.31428 9.37031 5.26837C9.31694 5.22247 9.27313 5.1665 9.24138 5.10367C9.17728 4.97677 9.1662 4.8296 9.2106 4.69453C9.23259 4.62765 9.26753 4.56576 9.31343 4.51239C9.35934 4.45901 9.4153 4.4152 9.47814 4.38346C9.60504 4.31935 9.75221 4.30828 9.88728 4.35268L10.7143 4.62054V3.75C10.7143 3.60792 10.7707 3.47166 10.8712 3.37119C10.9717 3.27073 11.1079 3.21429 11.25 3.21429C11.3921 3.21429 11.5283 3.27073 11.6288 3.37119C11.7293 3.47166 11.7857 3.60792 11.7857 3.75V4.62054L12.6127 4.35268C12.6796 4.33069 12.7502 4.3221 12.8204 4.32738C12.8906 4.33266 12.959 4.35172 13.0219 4.38346C13.0847 4.4152 13.1407 4.45901 13.1866 4.51239C13.2325 4.56576 13.2674 4.62765 13.2894 4.69453C13.3114 4.76141 13.32 4.83196 13.3147 4.90216C13.3094 4.97236 13.2904 5.04083 13.2586 5.10367C13.2269 5.1665 13.1831 5.22247 13.1297 5.26837C13.0763 5.31428 13.0144 5.34922 12.9475 5.37121L12.1199 5.63906L12.6281 6.34219ZM7.8067 6.34219C7.84807 6.39935 7.87778 6.4641 7.89413 6.53274C7.91049 6.60138 7.91316 6.67257 7.90199 6.74225C7.89083 6.81192 7.86606 6.87872 7.82908 6.93882C7.79211 6.99892 7.74366 7.05115 7.6865 7.09252C7.62934 7.1339 7.56458 7.16361 7.49594 7.17996C7.4273 7.19631 7.35611 7.19898 7.28643 7.18782C7.21676 7.17666 7.14996 7.15188 7.08986 7.11491C7.02976 7.07793 6.97754 7.02948 6.93616 6.97232L6.42857 6.26853L5.91763 6.97232C5.83407 7.08776 5.70808 7.16528 5.56736 7.18782C5.42665 7.21036 5.28274 7.17608 5.1673 7.09252C5.05186 7.00896 4.97434 6.88296 4.9518 6.74225C4.92926 6.60153 4.96354 6.45763 5.0471 6.34219L5.55871 5.63906L4.73103 5.37121C4.66415 5.34922 4.60226 5.31428 4.54888 5.26837C4.49551 5.22247 4.4517 5.1665 4.41996 5.10367C4.35585 4.97677 4.34477 4.8296 4.38917 4.69453C4.41116 4.62765 4.4461 4.56576 4.492 4.51239C4.53791 4.45901 4.59388 4.4152 4.65671 4.38346C4.78361 4.31935 4.93078 4.30828 5.06585 4.35268L5.89286 4.62054V3.75C5.89286 3.60792 5.9493 3.47166 6.04976 3.37119C6.15023 3.27073 6.28649 3.21429 6.42857 3.21429C6.57065 3.21429 6.70691 3.27073 6.80738 3.37119C6.90784 3.47166 6.96429 3.60792 6.96429 3.75V4.62054L7.79129 4.35268C7.85817 4.33069 7.92872 4.3221 7.99892 4.32738C8.06912 4.33266 8.1376 4.35172 8.20043 4.38346C8.26327 4.4152 8.31923 4.45901 8.36514 4.51239C8.41104 4.56576 8.44598 4.62765 8.46797 4.69453C8.48995 4.76141 8.49855 4.83196 8.49327 4.90216C8.48799 4.97236 8.46893 5.04083 8.43719 5.10367C8.40544 5.1665 8.36163 5.22247 8.30826 5.26837C8.25489 5.31428 8.19299 5.34922 8.12612 5.37121L7.29844 5.63906L7.8067 6.34219ZM3.21429 2.67857V8.03571C3.21429 8.17779 3.15784 8.31406 3.05738 8.41452C2.95691 8.51499 2.82065 8.57143 2.67857 8.57143C2.53649 8.57143 2.40023 8.51499 2.29976 8.41452C2.1993 8.31406 2.14286 8.17779 2.14286 8.03571V2.67857C2.14286 2.53649 2.1993 2.40023 2.29976 2.29976C2.40023 2.1993 2.53649 2.14286 2.67857 2.14286C2.82065 2.14286 2.95691 2.1993 3.05738 2.29976C3.15784 2.40023 3.21429 2.53649 3.21429 2.67857Z" fill="#B8C0CC"/>
</svg>
