<svg width="107" height="40" viewBox="0 0 107 40" fill="none" xmlns="http://www.w3.org/2000/svg">
<g clip-path="url(#clip0_13_2)">
<path d="M15.7159 20.2045C14.8864 20.2045 14.1733 20.0682 13.5767 19.7955C12.9858 19.517 12.554 19.0966 12.2812 18.5341C12.0142 17.9659 11.9545 17.25 12.1023 16.3864C12.2216 15.6705 12.446 15.0597 12.7756 14.554C13.1051 14.0483 13.5142 13.6335 14.0028 13.3097C14.4915 12.9858 15.0398 12.7386 15.6477 12.5682C16.2614 12.392 16.9091 12.2784 17.5909 12.2273C18.3295 12.1705 18.929 12.0994 19.3892 12.0142C19.8494 11.929 20.1932 11.8125 20.4205 11.6648C20.6477 11.517 20.7841 11.3182 20.8295 11.0682V11.0341C20.8807 10.6932 20.7898 10.4318 20.5568 10.25C20.3295 10.0682 20.0114 9.97727 19.6023 9.97727C19.1591 9.97727 18.7756 10.0739 18.4517 10.267C18.1335 10.4602 17.9148 10.7614 17.7955 11.1705H13.4659C13.6477 10.375 14.0199 9.64205 14.5824 8.97159C15.1506 8.29545 15.9034 7.75568 16.8409 7.35227C17.7841 6.94318 18.9091 6.73864 20.2159 6.73864C21.1477 6.73864 21.9659 6.84943 22.6705 7.07102C23.375 7.28693 23.9574 7.59091 24.4176 7.98295C24.8835 8.36932 25.2102 8.82386 25.3977 9.34659C25.5909 9.86364 25.6364 10.4261 25.5341 11.0341L24.0341 20H19.6364L19.9432 18.1591H19.8409C19.5 18.6477 19.1165 19.0426 18.6903 19.3438C18.2699 19.6449 17.8097 19.8636 17.3097 20C16.8153 20.1364 16.2841 20.2045 15.7159 20.2045ZM17.7614 17.2386C18.1136 17.2386 18.4602 17.1648 18.8011 17.017C19.142 16.8693 19.4347 16.6562 19.679 16.3778C19.9233 16.0994 20.0795 15.7614 20.1477 15.3636L20.3182 14.2727C20.1932 14.3239 20.054 14.3722 19.9006 14.4176C19.7528 14.4574 19.5966 14.4972 19.4318 14.5369C19.2727 14.5767 19.1023 14.6136 18.9205 14.6477C18.7443 14.6818 18.5625 14.7159 18.375 14.75C18 14.8068 17.6847 14.9006 17.429 15.0312C17.1733 15.1562 16.9744 15.3125 16.8324 15.5C16.6903 15.6818 16.6023 15.8864 16.5682 16.1136C16.517 16.4716 16.5994 16.75 16.8153 16.9489C17.0369 17.142 17.3523 17.2386 17.7614 17.2386ZM33.8842 2.54545L30.9865 20H26.282L29.1797 2.54545H33.8842ZM39.3494 12.6364L38.1222 20H33.4176L35.5994 6.90909H40.0653L39.6562 9.39773H39.7926C40.2074 8.5625 40.8125 7.91193 41.608 7.44602C42.4091 6.97443 43.2926 6.73864 44.2585 6.73864C45.1847 6.73864 45.9545 6.94886 46.5682 7.36932C47.1818 7.78977 47.6165 8.36932 47.8722 9.10795C48.1278 9.84659 48.1733 10.6932 48.0085 11.6477L46.6108 20H41.9062L43.1335 12.6364C43.2415 11.9886 43.1619 11.4801 42.8949 11.1108C42.6335 10.7415 42.2017 10.5568 41.5994 10.5568C41.2188 10.5568 40.8693 10.642 40.5511 10.8125C40.2386 10.9773 39.9773 11.2159 39.767 11.5284C39.5625 11.8352 39.4233 12.2045 39.3494 12.6364ZM49.1378 17.2727L49.7514 13.5909L58.6151 2.54545H61.956L61.1378 7.45454H59.2287L54.456 13.4545L54.4219 13.5909H64.7855L64.1719 17.2727H49.1378ZM57.1832 20L57.831 16.1477L58.206 14.5455L60.1832 2.54545H64.6151L61.7173 20H57.1832ZM70.4893 16.8977L71.4439 11.3068H72.0575L75.978 6.90909H81.2621L74.8189 13.7614H73.4893L70.4893 16.8977ZM65.7507 20L68.6484 2.54545H73.353L70.4553 20H65.7507ZM73.8303 20L71.6825 14.8182L75.3303 11.4773L79.2166 20H73.8303ZM93.7031 11.1705H89.4759C89.4986 10.8977 89.4503 10.6648 89.331 10.4716C89.2116 10.2784 89.044 10.1307 88.8281 10.0284C88.6179 9.92614 88.3793 9.875 88.1122 9.875C87.6463 9.875 87.223 9.98011 86.8423 10.1903C86.4616 10.3949 86.2486 10.6648 86.2031 11C86.1747 11.1307 86.2173 11.2528 86.331 11.3665C86.4446 11.4801 86.7429 11.5852 87.2259 11.6818L89.8168 12.1591C91.1122 12.3977 92.0554 12.8324 92.6463 13.4631C93.2429 14.0881 93.4588 14.9148 93.294 15.9432C93.1406 16.8352 92.7486 17.6023 92.1179 18.2443C91.4872 18.8864 90.6861 19.3807 89.7145 19.7273C88.7486 20.0682 87.6804 20.2386 86.5099 20.2386C84.4474 20.2386 82.902 19.8267 81.8736 19.0028C80.8509 18.179 80.3849 17.1023 80.4759 15.7727H85.044C85.0554 16.1989 85.1974 16.5199 85.4702 16.7358C85.7486 16.946 86.1179 17.0568 86.5781 17.0682C87.0781 17.0852 87.5156 16.9858 87.8906 16.7699C88.2656 16.5483 88.4759 16.2727 88.5213 15.9432C88.5384 15.7557 88.456 15.6136 88.2741 15.517C88.098 15.4205 87.7599 15.3239 87.2599 15.2273L85.0099 14.8182C83.7145 14.5852 82.7713 14.1193 82.1804 13.4205C81.5895 12.7159 81.3849 11.8182 81.5668 10.7273C81.7145 9.85795 82.0668 9.12784 82.6236 8.53693C83.1861 7.94602 83.9247 7.5 84.8395 7.19886C85.7543 6.89205 86.8111 6.73864 88.0099 6.73864C89.9702 6.73864 91.4531 7.13352 92.4588 7.92329C93.4702 8.70739 93.8849 9.78977 93.7031 11.1705ZM22.3722 39.1818C21.054 39.1818 19.9574 38.9943 19.0824 38.6193C18.2131 38.25 17.571 37.7386 17.1562 37.0852C16.7472 36.4375 16.5767 35.6932 16.6449 34.8523H21.179C21.1903 35.1364 21.2727 35.3636 21.4261 35.5341C21.5795 35.7045 21.7926 35.8267 22.0653 35.9006C22.3381 35.9744 22.6563 36.0114 23.0199 36.0114C23.6335 36.0114 24.1648 35.8608 24.6136 35.5597C25.0625 35.2642 25.3381 34.733 25.4403 33.9659L25.8153 31.75H25.679C25.4403 32.1932 25.1193 32.571 24.7159 32.8835C24.3125 33.1903 23.8494 33.4261 23.3267 33.5909C22.804 33.75 22.2472 33.8295 21.6562 33.8295C20.7244 33.8295 19.9034 33.6136 19.1932 33.1818C18.4886 32.75 17.9773 32.0653 17.6591 31.1278C17.3466 30.1903 17.3153 28.9659 17.5653 27.4545C17.8267 25.875 18.2869 24.5909 18.946 23.6023C19.6051 22.6136 20.3636 21.8892 21.2216 21.429C22.0795 20.9688 22.9403 20.7386 23.804 20.7386C24.4517 20.7386 25 20.8523 25.4489 21.0795C25.8977 21.3011 26.2557 21.5994 26.5227 21.9744C26.7898 22.3437 26.9744 22.75 27.0767 23.1932H27.179L27.554 20.9091H32.2585L30.0767 33.9659C29.9063 35.0795 29.4716 36.0227 28.7727 36.7955C28.0795 37.5739 27.1818 38.1648 26.0795 38.5682C24.983 38.9773 23.7472 39.1818 22.3722 39.1818ZM23.9403 30.4886C24.3722 30.4886 24.7642 30.3693 25.1165 30.1307C25.4688 29.8864 25.767 29.5398 26.0114 29.0909C26.2557 28.6364 26.429 28.0909 26.5312 27.4545C26.6335 26.8068 26.6392 26.2528 26.5483 25.7926C26.4574 25.3267 26.2784 24.9716 26.0114 24.7273C25.7443 24.4773 25.3949 24.3523 24.9631 24.3523C24.5313 24.3523 24.142 24.4773 23.7955 24.7273C23.4489 24.9716 23.1562 25.3267 22.9176 25.7926C22.679 26.2528 22.5085 26.8068 22.4062 27.4545C22.304 28.1023 22.2955 28.6534 22.3807 29.108C22.4659 29.5568 22.6392 29.9006 22.9006 30.1392C23.1619 30.3722 23.5085 30.4886 23.9403 30.4886ZM36.0831 34.2045C35.2536 34.2045 34.5405 34.0682 33.9439 33.7955C33.353 33.517 32.9212 33.0966 32.6484 32.5341C32.3814 31.9659 32.3217 31.25 32.4695 30.3864C32.5888 29.6705 32.8132 29.0597 33.1428 28.554C33.4723 28.0483 33.8814 27.6335 34.37 27.3097C34.8587 26.9858 35.407 26.7386 36.0149 26.5682C36.6286 26.392 37.2763 26.2784 37.9581 26.2273C38.6967 26.1705 39.2962 26.0994 39.7564 26.0142C40.2166 25.929 40.5604 25.8125 40.7876 25.6648C41.0149 25.517 41.1513 25.3182 41.1967 25.0682V25.0341C41.2479 24.6932 41.157 24.4318 40.924 24.25C40.6967 24.0682 40.3786 23.9773 39.9695 23.9773C39.5263 23.9773 39.1428 24.0739 38.8189 24.267C38.5007 24.4602 38.282 24.7614 38.1626 25.1705H33.8331C34.0149 24.375 34.3871 23.642 34.9496 22.9716C35.5178 22.2955 36.2706 21.7557 37.2081 21.3523C38.1513 20.9432 39.2763 20.7386 40.5831 20.7386C41.5149 20.7386 42.3331 20.8494 43.0376 21.071C43.7422 21.2869 44.3246 21.5909 44.7848 21.983C45.2507 22.3693 45.5774 22.8239 45.7649 23.3466C45.9581 23.8636 46.0036 24.4261 45.9013 25.0341L44.4013 34H40.0036L40.3104 32.1591H40.2081C39.8672 32.6477 39.4837 33.0426 39.0575 33.3438C38.6371 33.6449 38.1768 33.8636 37.6768 34C37.1825 34.1364 36.6513 34.2045 36.0831 34.2045ZM38.1286 31.2386C38.4808 31.2386 38.8274 31.1648 39.1683 31.017C39.5092 30.8693 39.8018 30.6562 40.0462 30.3778C40.2905 30.0994 40.4467 29.7614 40.5149 29.3636L40.6854 28.2727C40.5604 28.3239 40.4212 28.3722 40.2678 28.4176C40.12 28.4574 39.9638 28.4972 39.799 28.5369C39.6399 28.5767 39.4695 28.6136 39.2876 28.6477C39.1115 28.6818 38.9297 28.7159 38.7422 28.75C38.3672 28.8068 38.0518 28.9006 37.7962 29.0312C37.5405 29.1562 37.3416 29.3125 37.1996 29.5C37.0575 29.6818 36.9695 29.8864 36.9354 30.1136C36.8842 30.4716 36.9666 30.75 37.1825 30.9489C37.4041 31.142 37.7195 31.2386 38.1286 31.2386ZM46.6832 34L48.8651 20.9091H53.331L52.9219 23.3977H53.0582C53.4616 22.5795 54.0327 21.9318 54.7713 21.4545C55.5099 20.9773 56.3366 20.7386 57.2514 20.7386C58.1662 20.7386 58.9162 20.983 59.5014 21.4716C60.0866 21.9545 60.3821 22.5966 60.3878 23.3977H60.5241C60.8764 22.5966 61.4531 21.9545 62.2543 21.4716C63.0554 20.983 63.9446 20.7386 64.9219 20.7386C66.1662 20.7386 67.1122 21.142 67.7599 21.9489C68.4134 22.7557 68.6264 23.8295 68.3991 25.1705L66.9332 34H62.2287L63.5241 26.3636C63.6037 25.7898 63.5241 25.3409 63.2855 25.017C63.0469 24.6875 62.6832 24.5227 62.1946 24.5227C61.7116 24.5227 61.3026 24.6875 60.9673 25.017C60.6378 25.3409 60.4332 25.7898 60.3537 26.3636L59.0582 34H54.5582L55.8537 26.3636C55.9332 25.7898 55.8537 25.3409 55.6151 25.017C55.3764 24.6875 55.0128 24.5227 54.5241 24.5227C54.206 24.5227 53.9162 24.5966 53.6548 24.7443C53.3991 24.892 53.1861 25.1051 53.0156 25.3835C52.8509 25.6562 52.7401 25.983 52.6832 26.3636L51.3878 34H46.6832ZM75.4581 34.2386C74.0604 34.2386 72.9013 33.9716 71.9808 33.4375C71.0604 32.8977 70.4126 32.125 70.0376 31.1193C69.6626 30.108 69.5945 28.8977 69.8331 27.4886C70.0604 26.1364 70.5291 24.9545 71.2393 23.9432C71.9553 22.9318 72.8558 22.1449 73.9411 21.5824C75.032 21.0199 76.2536 20.7386 77.6058 20.7386C78.5945 20.7386 79.4609 20.892 80.2053 21.1989C80.9553 21.5057 81.5661 21.9517 82.0376 22.5369C82.5092 23.1222 82.8274 23.8295 82.9922 24.6591C83.1626 25.483 83.1626 26.4148 82.9922 27.4545L82.8217 28.5455H71.1286L71.5376 25.9545H78.9013C78.9581 25.5795 78.9212 25.25 78.7905 24.9659C78.6655 24.6761 78.4638 24.4517 78.1854 24.2926C77.9126 24.1278 77.5831 24.0455 77.1967 24.0455C76.8104 24.0455 76.4467 24.1278 76.1058 24.2926C75.7706 24.4574 75.4837 24.6875 75.245 24.983C75.0121 25.2784 74.8558 25.625 74.7763 26.0227L74.2649 28.75C74.1967 29.1705 74.2223 29.5455 74.3416 29.875C74.4609 30.2045 74.6683 30.4631 74.9638 30.6506C75.2592 30.8381 75.6399 30.9318 76.1058 30.9318C76.424 30.9318 76.7251 30.8892 77.0092 30.804C77.299 30.7131 77.5547 30.5824 77.7763 30.4119C78.0036 30.2358 78.1854 30.0227 78.3217 29.7727H82.6172C82.3104 30.6818 81.8246 31.4716 81.1598 32.142C80.5007 32.8068 79.6882 33.3239 78.7223 33.6932C77.7621 34.0568 76.674 34.2386 75.4581 34.2386ZM97.2188 25.1705H92.9915C93.0142 24.8977 92.9659 24.6648 92.8466 24.4716C92.7273 24.2784 92.5597 24.1307 92.3438 24.0284C92.1335 23.9261 91.8949 23.875 91.6278 23.875C91.1619 23.875 90.7386 23.9801 90.358 24.1903C89.9773 24.3949 89.7642 24.6648 89.7188 25C89.6903 25.1307 89.733 25.2528 89.8466 25.3665C89.9602 25.4801 90.2585 25.5852 90.7415 25.6818L93.3324 26.1591C94.6278 26.3977 95.571 26.8324 96.1619 27.4631C96.7585 28.0881 96.9744 28.9148 96.8097 29.9432C96.6563 30.8352 96.2642 31.6023 95.6335 32.2443C95.0028 32.8864 94.2017 33.3807 93.2301 33.7273C92.2642 34.0682 91.196 34.2386 90.0256 34.2386C87.9631 34.2386 86.4176 33.8267 85.3892 33.0028C84.3665 32.179 83.9006 31.1023 83.9915 29.7727H88.5597C88.571 30.1989 88.7131 30.5199 88.9858 30.7358C89.2642 30.946 89.6335 31.0568 90.0938 31.0682C90.5938 31.0852 91.0312 30.9858 91.4062 30.7699C91.7812 30.5483 91.9915 30.2727 92.0369 29.9432C92.054 29.7557 91.9716 29.6136 91.7898 29.517C91.6136 29.4205 91.2756 29.3239 90.7756 29.2273L88.5256 28.8182C87.2301 28.5852 86.2869 28.1193 85.696 27.4205C85.1051 26.7159 84.9006 25.8182 85.0824 24.7273C85.2301 23.858 85.5824 23.1278 86.1392 22.5369C86.7017 21.946 87.4403 21.5 88.3551 21.1989C89.2699 20.892 90.3267 20.7386 91.5256 20.7386C93.4858 20.7386 94.9688 21.1335 95.9744 21.9233C96.9858 22.7074 97.4006 23.7898 97.2188 25.1705Z" fill="white"/>
<path d="M98.9021 20.071H99.1385C99.4171 20.071 99.6394 19.9781 99.6394 19.753C99.6394 19.556 99.4931 19.4238 99.1779 19.4238C99.0457 19.4238 98.9528 19.4379 98.8993 19.4491V20.071H98.9021ZM98.8909 21.2866H98.39V19.1199C98.587 19.0946 98.8656 19.0524 99.2229 19.0524C99.6309 19.0524 99.8166 19.1171 99.963 19.224C100.095 19.3169 100.188 19.4744 100.188 19.6855C100.188 19.95 99.9911 20.1216 99.7407 20.2004V20.2257C99.9517 20.2905 100.059 20.4621 100.123 20.7547C100.191 21.084 100.242 21.205 100.281 21.2837H99.7519C99.6872 21.205 99.645 21.0192 99.5803 20.7547C99.5409 20.5296 99.4086 20.4255 99.1301 20.4255H98.8937V21.2837L98.8909 21.2866ZM97.5571 20.1638C97.5571 21.129 98.2831 21.8943 99.2483 21.8915C100.185 21.9056 100.897 21.1233 100.897 20.1751C100.897 19.2099 100.182 18.4333 99.2201 18.4333C98.2831 18.4333 97.5571 19.2128 97.5571 20.1638ZM101.451 20.1638C101.451 21.3794 100.475 22.3446 99.2342 22.3446C97.9933 22.3446 97.0028 21.3822 97 20.1666C96.9972 18.9511 97.9877 18 99.2426 18C100.469 18 101.449 18.9483 101.449 20.1638" fill="white"/>
</g>
<defs>
<clipPath id="clip0_13_2">
<rect width="107" height="40" fill="white"/>
</clipPath>
</defs>
</svg>
